<svg width="49" height="49" viewBox="0 0 49 49" fill="none" xmlns="http://www.w3.org/2000/svg">
<path d="M44.7391 0H4.26087C1.90766 0 0 1.90766 0 4.26087V44.7391C0 47.0923 1.90766 49 4.26087 49H44.7391C47.0923 49 49 47.0923 49 44.7391V4.26087C49 1.90766 47.0923 0 44.7391 0Z" fill="#D5EDFF"/>
<path opacity="0.31" d="M14.9351 22.5023V33.0408C15.0449 33.6781 15.3755 34.2566 15.8689 34.6747C16.3622 35.0927 16.9869 35.3238 17.6336 35.3276H25.9522" stroke="#535353" stroke-width="3" stroke-linecap="round" stroke-linejoin="round"/>
<path opacity="0.31" d="M14.3272 18.9133C14.1798 18.9129 14.0385 18.8541 13.9344 18.7497C13.8303 18.6453 13.7718 18.5039 13.7718 18.3565V15.5792C13.7717 15.3602 13.8146 15.1433 13.8983 14.9409C13.982 14.7385 14.1047 14.5546 14.2595 14.3997C14.4143 14.2448 14.5981 14.1219 14.8004 14.038C15.0027 13.9542 15.2196 13.911 15.4386 13.911H33.222C33.6645 13.911 34.0888 14.0868 34.4018 14.3996C34.7147 14.7124 34.8907 15.1367 34.8908 15.5792V18.3565C34.8905 18.5041 34.8317 18.6455 34.7274 18.7498C34.623 18.8541 34.4816 18.9129 34.3341 18.9133H14.3272Z" stroke="#535353" stroke-width="3" stroke-linecap="round" stroke-linejoin="round"/>
<path opacity="0.31" d="M22.3987 21.947H26.7497" stroke="#535353" stroke-width="3" stroke-linecap="round" stroke-linejoin="round"/>
<path d="M28.606 30.2779L34.731 36.4029" stroke="#707070" stroke-width="3" stroke-linecap="round"/>
<path d="M34.7303 30.2779L28.6053 36.4029" stroke="#707070" stroke-width="3" stroke-linecap="round"/>
</svg>
