<svg width="49" height="49" viewBox="0 0 49 49" fill="none" xmlns="http://www.w3.org/2000/svg">
<path d="M44.7391 0H4.26087C1.90766 0 0 1.90766 0 4.26087V44.7391C0 47.0923 1.90766 49 4.26087 49H44.7391C47.0923 49 49 47.0923 49 44.7391V4.26087C49 1.90766 47.0923 0 44.7391 0Z" fill="#D5EDFF"/>
<g opacity="0.31">
<path opacity="0.31" d="M15.1822 22.1764V32.5595C15.2905 33.1879 15.6165 33.7581 16.1032 34.1701C16.5899 34.5822 17.2061 34.8096 17.8438 34.8127H28.9725" stroke="#535353" stroke-width="3" stroke-linecap="round" stroke-linejoin="round"/>
<path opacity="0.31" d="M33.9016 18.7494V26.6227" stroke="#535353" stroke-width="3" stroke-linecap="round" stroke-linejoin="round"/>
<path opacity="0.31" d="M15.6786 13.7101H33.2042C33.6401 13.7101 34.058 13.8832 34.3662 14.1914C34.6744 14.4995 34.8475 14.9175 34.8475 15.3533V18.0916C34.8475 18.2369 34.7898 18.3761 34.6872 18.4788C34.5845 18.5815 34.4452 18.6392 34.3 18.6392H14.5828C14.4376 18.6392 14.2983 18.5815 14.1957 18.4788C14.093 18.3761 14.0353 18.2369 14.0353 18.0916V15.3533C14.0353 14.9175 14.2084 14.4995 14.5166 14.1914C14.8248 13.8832 15.2428 13.7101 15.6786 13.7101V13.7101Z" stroke="#535353" stroke-width="3" stroke-linecap="round" stroke-linejoin="round"/>
<path opacity="0.31" d="M22.5379 21.6296H26.8264" stroke="#535353" stroke-width="3" stroke-linecap="round" stroke-linejoin="round"/>
</g>
<path opacity="0.31" d="M31.9991 34.8177C32.689 34.8465 33.3699 34.6529 33.9414 34.2653C34.5049 33.8731 34.928 33.3104 35.1486 32.6602C35.262 32.2852 35.2958 31.8906 35.2478 31.5017C35.1999 31.1129 35.0713 30.7385 34.8703 30.4022C34.6692 30.0659 34.4001 29.7751 34.0802 29.5488C33.7603 29.3226 33.3966 29.1658 33.0125 29.0883C31.7037 28.92 26.379 29.0883 26.379 29.0883L28.7765 26.6916L26.1255 29.0883L28.4079 31.5829" stroke="#535353" stroke-width="3" stroke-linecap="round" stroke-linejoin="round"/>
<path d="M10.645 38.257L38.2129 10.6891" stroke="#707070" stroke-width="3" stroke-linecap="round"/>
</svg>
